<?xml version="1.0" encoding="utf-8"?>
<!-- Generator: Adobe Illustrator 17.0.0, SVG Export Plug-In . SVG Version: 6.00 Build 0)  -->
<!DOCTYPE svg PUBLIC "-//W3C//DTD SVG 1.1//EN" "http://www.w3.org/Graphics/SVG/1.1/DTD/svg11.dtd">
<svg version="1.1" id="Layer_1" xmlns="http://www.w3.org/2000/svg" xmlns:xlink="http://www.w3.org/1999/xlink" x="0px" y="0px"
	 width="60px" height="80px" viewBox="0 0 119.2 79.2" enable-background="new 0 0 119.2 79.2" xml:space="preserve">
<g>
	<defs>
		<rect id="SVGID_1_" width="119.2" height="79.2"/>
	</defs>
	<clipPath id="SVGID_2_">
		<use xlink:href="#SVGID_1_"  overflow="visible"/>
	</clipPath>

		<polygon clip-path="url(#SVGID_2_)" fill="none" stroke="#000000" stroke-width="3.2" stroke-linejoin="round" stroke-miterlimit="10" points="
		117.6,77.6 1.6,77.6 1.6,1.6 99.6,1.6 117.6,19.6 	"/>
</g>
<polyline fill="none" stroke="#000000" stroke-width="3.7" stroke-linecap="round" stroke-linejoin="round" stroke-miterlimit="10" points="
	91.6,55.6 81.6,23.6 71.6,55.6 "/>
<line fill="none" stroke="#000000" stroke-width="3.7" stroke-linecap="round" stroke-linejoin="round" stroke-miterlimit="10" x1="75.6" y1="45.6" x2="87.6" y2="45.6"/>
<polyline fill="none" stroke="#000000" stroke-width="3.7" stroke-linecap="round" stroke-linejoin="round" stroke-miterlimit="10" points="
	27.6,55.6 27.6,23.6 43.6,55.6 43.6,23.6 "/>
<polygon fill="#FFCC05" points="99.6,19.6 117.6,19.6 109.6,11.6 99.6,1.6 "/>
<g>
	<defs>
		<rect id="SVGID_3_" width="119.2" height="79.2"/>
	</defs>
	<clipPath id="SVGID_4_">
		<use xlink:href="#SVGID_3_"  overflow="visible"/>
	</clipPath>

		<polygon clip-path="url(#SVGID_4_)" fill="none" stroke="#000000" stroke-width="3.2" stroke-linejoin="round" stroke-miterlimit="10" points="
		99.6,19.6 117.6,19.6 109.6,11.6 99.6,1.6 	"/>

		<path clip-path="url(#SVGID_4_)" fill="none" stroke="#000000" stroke-width="3.7" stroke-linecap="round" stroke-linejoin="round" stroke-miterlimit="10" d="
		M51.6,23.851v32h7c4.971,0,9-4.029,9-9v-14c0-4.971-4.029-9-9-9H51.6z"/>
</g>
</svg>
